<svg width="256" height="256" viewBox="0 0 256 256" fill="none" xmlns="http://www.w3.org/2000/svg">
<circle cx="128" cy="128" r="128" fill="#F1EFE3"/>
<g filter="url(#filter0_d_3_78)">
<path d="M41.0168 71.0234L139.347 55.4495C142.117 55.0106 144.719 56.901 145.158 59.6717L167.089 198.136C167.528 200.907 165.637 203.509 162.866 203.948L64.5366 219.522C61.7659 219.96 59.164 218.07 58.7252 215.299L36.7946 76.8348C36.3557 74.0641 38.2461 71.4622 41.0168 71.0234Z" fill="black"/>
</g>
<path d="M41.0168 71.0234L139.347 55.4495C142.117 55.0106 144.719 56.901 145.158 59.6717L167.089 198.136C167.528 200.907 165.637 203.509 162.866 203.948L64.5366 219.522C61.7659 219.96 59.164 218.07 58.7252 215.299L36.7946 76.8348C36.3557 74.0641 38.2461 71.4622 41.0168 71.0234Z" fill="url(#paint0_linear_3_78)" stroke="white" stroke-width="2.03175"/>
<g filter="url(#filter1_d_3_78)">
<path d="M63.3615 55.7699L162.675 48.8252C165.473 48.6296 167.9 50.7395 168.096 53.5379L177.875 193.387C178.071 196.185 175.961 198.613 173.162 198.808L73.8494 205.753C71.051 205.949 68.6238 203.839 68.4281 201.04L58.6489 61.1912C58.4532 58.3928 60.5631 55.9656 63.3615 55.7699Z" fill="black"/>
</g>
<path d="M63.3615 55.7699L162.675 48.8252C165.473 48.6296 167.9 50.7395 168.096 53.5379L177.875 193.387C178.071 196.185 175.961 198.613 173.162 198.808L73.8494 205.753C71.051 205.949 68.6238 203.839 68.4281 201.04L58.6489 61.1912C58.4532 58.3928 60.5631 55.9656 63.3615 55.7699Z" fill="url(#paint1_linear_3_78)" stroke="white" stroke-width="2.03175"/>
<g filter="url(#filter2_d_3_78)">
<path d="M89.8237 43.9392L189.364 45.6767C192.169 45.7257 194.403 48.0391 194.354 50.844L191.907 191.013C191.858 193.818 189.545 196.052 186.74 196.003L87.1997 194.266C84.3949 194.217 82.1608 191.903 82.2098 189.098L84.6564 48.9292C84.7054 46.1243 87.0188 43.8903 89.8237 43.9392Z" fill="black"/>
</g>
<path d="M89.8237 43.9392L189.364 45.6767C192.169 45.7257 194.403 48.0391 194.354 50.844L191.907 191.013C191.858 193.818 189.545 196.052 186.74 196.003L87.1997 194.266C84.3949 194.217 82.1608 191.903 82.2098 189.098L84.6564 48.9292C84.7054 46.1243 87.0188 43.8903 89.8237 43.9392Z" fill="url(#paint2_linear_3_78)" stroke="white" stroke-width="2.03175"/>
<g filter="url(#filter3_d_3_78)">
<path d="M116.554 36.619L215.367 48.7518C218.151 49.0937 220.131 51.628 219.789 54.4123L202.705 193.558C202.363 196.342 199.828 198.322 197.044 197.98L98.2306 185.848C95.4462 185.506 93.4662 182.971 93.8081 180.187L110.893 41.0415C111.235 38.2572 113.769 36.2771 116.554 36.619Z" fill="black"/>
</g>
<path d="M116.554 36.619L215.367 48.7518C218.151 49.0937 220.131 51.628 219.789 54.4123L202.705 193.558C202.363 196.342 199.828 198.322 197.044 197.98L98.2306 185.848C95.4462 185.506 93.4662 182.971 93.8081 180.187L110.893 41.0415C111.235 38.2572 113.769 36.2771 116.554 36.619Z" fill="url(#paint3_linear_3_78)" stroke="white" stroke-width="2.03175"/>
<path d="M156.799 149.808C174.752 149.808 189.307 135.253 189.307 117.3C189.307 99.346 174.752 84.7917 156.799 84.7917C138.845 84.7917 124.291 99.346 124.291 117.3C124.291 135.253 138.845 149.808 156.799 149.808Z" fill="white" fill-opacity="0.3"/>
<g opacity="0.2">
<path d="M156.799 126.95C160.151 126.95 162.894 124.208 162.894 120.855V102.569C162.894 99.2171 160.151 96.4742 156.799 96.4742C153.446 96.4742 150.704 99.2171 150.704 102.569V120.855C150.704 124.208 153.446 126.95 156.799 126.95Z" fill="#1A9FE2"/>
</g>
<g opacity="0.2">
<path d="M156.799 133.757C149.485 133.757 143.592 127.865 143.592 120.551V116.69C143.592 115.877 144.304 115.166 145.116 115.166C145.929 115.166 146.64 115.877 146.64 116.69V120.551C146.64 126.138 151.212 130.709 156.799 130.709C162.386 130.709 166.958 126.138 166.958 120.551V116.69C166.958 115.877 167.669 115.166 168.481 115.166C169.294 115.166 170.005 115.877 170.005 116.69V120.551C170.005 127.865 164.113 133.757 156.799 133.757Z" fill="#1A9FE2"/>
</g>
<g opacity="0.2">
<path d="M161.878 141.681H151.719C150.907 141.681 150.196 140.97 150.196 140.157C150.196 139.344 150.907 138.633 151.719 138.633H161.878C162.691 138.633 163.402 139.344 163.402 140.157C163.402 140.97 162.691 141.681 161.878 141.681Z" fill="#1A9FE2"/>
</g>
<path d="M156.799 124.919C160.151 124.919 162.894 122.176 162.894 118.823V100.538C162.894 97.1854 160.151 94.4425 156.799 94.4425C153.446 94.4425 150.704 97.1854 150.704 100.538V118.823C150.704 122.176 153.446 124.919 156.799 124.919Z" fill="#4F5D73"/>
<path d="M156.799 131.725C149.485 131.725 143.592 125.833 143.592 118.519V114.658C143.592 113.846 144.304 113.135 145.116 113.135C145.929 113.135 146.64 113.846 146.64 114.658V118.519C146.64 124.106 151.212 128.678 156.799 128.678C162.386 128.678 166.958 124.106 166.958 118.519V114.658C166.958 113.846 167.669 113.135 168.481 113.135C169.294 113.135 170.005 113.846 170.005 114.658V118.519C170.005 125.833 164.113 131.725 156.799 131.725Z" fill="white"/>
<path d="M156.799 138.633C155.986 138.633 155.275 137.922 155.275 137.109V131.014C155.275 130.201 155.986 129.49 156.799 129.49C157.612 129.49 158.323 130.201 158.323 131.014V137.109C158.323 137.922 157.612 138.633 156.799 138.633Z" fill="white"/>
<path d="M161.878 139.649H151.719C150.907 139.649 150.196 138.938 150.196 138.125C150.196 137.312 150.907 136.601 151.719 136.601H161.878C162.691 136.601 163.402 137.312 163.402 138.125C163.402 138.938 162.691 139.649 161.878 139.649Z" fill="white"/>
<defs>
<filter id="filter0_d_3_78" x="32.7313" y="53.3862" width="146.421" height="180.199" filterUnits="userSpaceOnUse" color-interpolation-filters="sRGB">
<feFlood flood-opacity="0" result="BackgroundImageFix"/>
<feColorMatrix in="SourceAlpha" type="matrix" values="0 0 0 0 0 0 0 0 0 0 0 0 0 0 0 0 0 0 127 0" result="hardAlpha"/>
<feOffset dx="4" dy="6"/>
<feGaussianBlur stdDeviation="4"/>
<feComposite in2="hardAlpha" operator="out"/>
<feColorMatrix type="matrix" values="0 0 0 0 0 0 0 0 0 0 0 0 0 0 0 0 0 0 0.2 0"/>
<feBlend mode="normal" in2="BackgroundImageFix" result="effect1_dropShadow_3_78"/>
<feBlend mode="normal" in="SourceGraphic" in2="effect1_dropShadow_3_78" result="shape"/>
</filter>
<filter id="filter1_d_3_78" x="54.6363" y="46.8127" width="135.251" height="172.953" filterUnits="userSpaceOnUse" color-interpolation-filters="sRGB">
<feFlood flood-opacity="0" result="BackgroundImageFix"/>
<feColorMatrix in="SourceAlpha" type="matrix" values="0 0 0 0 0 0 0 0 0 0 0 0 0 0 0 0 0 0 127 0" result="hardAlpha"/>
<feOffset dx="4" dy="6"/>
<feGaussianBlur stdDeviation="4"/>
<feComposite in2="hardAlpha" operator="out"/>
<feColorMatrix type="matrix" values="0 0 0 0 0 0 0 0 0 0 0 0 0 0 0 0 0 0 0.2 0"/>
<feBlend mode="normal" in2="BackgroundImageFix" result="effect1_dropShadow_3_78"/>
<feBlend mode="normal" in="SourceGraphic" in2="effect1_dropShadow_3_78" result="shape"/>
</filter>
<filter id="filter2_d_3_78" x="78.209" y="41.9384" width="128.146" height="168.065" filterUnits="userSpaceOnUse" color-interpolation-filters="sRGB">
<feFlood flood-opacity="0" result="BackgroundImageFix"/>
<feColorMatrix in="SourceAlpha" type="matrix" values="0 0 0 0 0 0 0 0 0 0 0 0 0 0 0 0 0 0 127 0" result="hardAlpha"/>
<feOffset dx="4" dy="6"/>
<feGaussianBlur stdDeviation="4"/>
<feComposite in2="hardAlpha" operator="out"/>
<feColorMatrix type="matrix" values="0 0 0 0 0 0 0 0 0 0 0 0 0 0 0 0 0 0 0.2 0"/>
<feBlend mode="normal" in2="BackgroundImageFix" result="effect1_dropShadow_3_78"/>
<feBlend mode="normal" in="SourceGraphic" in2="effect1_dropShadow_3_78" result="shape"/>
</filter>
<filter id="filter3_d_3_78" x="89.7697" y="34.5806" width="142.058" height="177.438" filterUnits="userSpaceOnUse" color-interpolation-filters="sRGB">
<feFlood flood-opacity="0" result="BackgroundImageFix"/>
<feColorMatrix in="SourceAlpha" type="matrix" values="0 0 0 0 0 0 0 0 0 0 0 0 0 0 0 0 0 0 127 0" result="hardAlpha"/>
<feOffset dx="4" dy="6"/>
<feGaussianBlur stdDeviation="4"/>
<feComposite in2="hardAlpha" operator="out"/>
<feColorMatrix type="matrix" values="0 0 0 0 0 0 0 0 0 0 0 0 0 0 0 0 0 0 0.2 0"/>
<feBlend mode="normal" in2="BackgroundImageFix" result="effect1_dropShadow_3_78"/>
<feBlend mode="normal" in="SourceGraphic" in2="effect1_dropShadow_3_78" result="shape"/>
</filter>
<linearGradient id="paint0_linear_3_78" x1="5454.18" y1="-786.337" x2="7806.16" y2="14063.5" gradientUnits="userSpaceOnUse">
<stop stop-color="#0093E9"/>
<stop offset="1" stop-color="#80D0C7"/>
</linearGradient>
<linearGradient id="paint1_linear_3_78" x1="5530.65" y1="-326.54" x2="6579.43" y2="14671.8" gradientUnits="userSpaceOnUse">
<stop stop-color="#0093E9"/>
<stop offset="1" stop-color="#80D0C7"/>
</linearGradient>
<linearGradient id="paint2_linear_3_78" x1="5569.62" y1="139.59" x2="5307.23" y2="15172.2" gradientUnits="userSpaceOnUse">
<stop stop-color="#0093E9"/>
<stop offset="1" stop-color="#80D0C7"/>
</linearGradient>
<linearGradient id="paint3_linear_3_78" x1="5556.34" y1="704.54" x2="3724.04" y2="15627.4" gradientUnits="userSpaceOnUse">
<stop stop-color="#0093E9"/>
<stop offset="1" stop-color="#80D0C7"/>
</linearGradient>
</defs>
</svg>
