<?xml version="1.0" encoding="UTF-8"?>
<svg width="240px" height="80px" viewBox="0 0 240 80" version="1.1" xmlns="http://www.w3.org/2000/svg" xmlns:xlink="http://www.w3.org/1999/xlink">
    <title>macOS</title>
    <g id="Page-1" stroke="none" stroke-width="1" fill="none" fill-rule="evenodd">
        <g id="Artboard" transform="translate(-101.000000, -116.000000)">
            <g id="macOS" transform="translate(101.000000, 116.000000)">
                <g id="apple">
                    <path d="M220.2,0 L15,0 C13.6,0 12.4,0.2 11,0.4 C9.8,0.6 8.4,1 7.2,1.6 C6,2.2 5,3 4,4 C3,5 2.2,6 1.6,7.2 C1,8.4 0.6,9.8 0.4,11 C0.2,12.4 0,13.6 0,15 C0,15.6 0,16.2 0,16.8 L0,63 C0,63.6 0,64.2 0,64.8 C0,66.2 0.2,67.4 0.4,68.8 C0.6,70.2 1,71.4 1.6,72.6 C2.2,74 3,75 4,76 C5,77 6,77.8 7.2,78.4 C8.4,79 9.6,79.4 11,79.6 C12.4,79.8 13.6,80 15,80 L224.2,80 C225.6,80 226.8,79.8 228.2,79.6 C229.6,79.4 230.8,79 232,78.4 C233.2,77.8 234.2,77 235.2,76 C236.2,75 237,74 237.6,72.8 C238.2,71.6 238.6,70.4 238.8,69 C239,67.6 239.2,66.4 239.2,65 C239.2,64.4 239.2,63.8 239.2,63.2 L239.2,16.8 C239.2,16.2 239.2,15.6 239.2,15 C239.2,13.6 239,12.4 238.8,11 C238.6,9.6 238.2,8.4 237.6,7.2 C236.4,4.8 234.4,2.8 232,1.6 C230.8,1 229.6,0.6 228.2,0.4 C226.8,0.2 225.6,0 224.2,0 L220.2,0 Z" id="Path" fill-rule="nonzero"></path>
                    <path d="M16.8,78.2 L15,78.2 C13.8,78.2 12.4,78.2 11.2,78 C10,77.8 9,77.4 7.8,76.8 C6.8,76.2 5.8,75.6 5,74.8 C4.2,74 3.6,73 3,72 C2.4,71 2,69.8 2,68.6 C1.8,67.4 1.6,66.2 1.6,64.8 C1.6,64.4 1.6,63 1.6,63 L1.6,16.8 C1.6,16.8 1.6,15.4 1.6,15 C1.6,13.8 1.8,12.4 2,11.2 C2.4,10.2 2.6,9 3.2,8 C3.8,7 4.4,6 5.2,5.2 C6,4.4 7,3.8 8,3.2 C9,2.6 10.2,2.2 11.4,2 C12.6,1.8 14,1.6 15.2,1.6 L224.4,1.6 C225.6,1.6 226.8,1.8 228.2,2 C229.4,2.2 230.4,2.6 231.6,3 C233.6,4 235.4,5.8 236.4,7.8 C237,8.8 237.2,10 237.4,11.2 C237.6,12.4 237.8,13.8 237.8,15 L237.8,16.8 C237.8,17.6 237.8,18.2 237.8,19 L237.8,60.8 C237.8,61.6 237.8,62.2 237.8,63 L237.8,64.8 C237.8,66 237.6,67.2 237.4,68.4 C237.2,69.6 236.8,70.6 236.4,71.8 C235.8,72.8 235.2,73.8 234.4,74.6 C233.6,75.4 232.6,76 231.6,76.6 C230.6,77.2 229.4,77.6 228.2,77.8 C227,78 225.8,78.2 224.4,78.2 L16.8,78.2 Z" id="Path" fill="#000000" fill-rule="nonzero"></path>
                    <g id="_Group_" transform="translate(19.000000, 17.000000)" fill="#FFFFFF" fill-rule="nonzero">
                        <g id="_Group_3">
                            <path d="M30.6,23.6 C30.6,20.2 32.4,17 35.4,15.4 C33.6,12.8 30.6,11.2 27.4,11 C24,10.6 20.8,13 19,13 C17.2,13 14.6,11 11.8,11 C8,11.2 4.6,13.2 2.8,16.4 C-1,23.2 1.8,33 5.6,38.4 C7.4,41 9.6,44 12.4,44 C15.2,44 16.2,42.2 19.6,42.2 C23,42.2 23.8,44 26.8,44 C29.8,44 31.6,41.4 33.4,38.6 C34.8,36.8 35.8,34.6 36.4,32.4 C32.8,31 30.6,27.4 30.6,23.6 L30.6,23.6 Z" id="_Path_"></path>
                            <path d="M25,7.4 C26.6,5.4 27.4,3 27.2,0.4 C24.8,0.6 22.4,1.8 20.8,3.8 C19.2,5.6 18.4,8 18.6,10.6 C21,10.6 23.4,9.4 25,7.4 Z" id="_Path_2"></path>
                        </g>
                    </g>
                    <g id="_Group_4" transform="translate(71.000000, 16.000000)"></g>
                </g>
                <text id="Download-for-macOS" font-family="HelveticaNeue, Helvetica Neue" font-size="24" font-weight="normal" line-spacing="25" fill="#FFFFFF">
                    <tspan x="70" y="39">Download</tspan>
                    <tspan x="70" y="64">for </tspan>
                    <tspan x="103.936" y="62.4637451" font-family="HelveticaNeue-Bold, Helvetica Neue" font-weight="bold">macOS</tspan>
                </text>
            </g>
        </g>
    </g>
</svg>