<?xml version="1.0" encoding="utf-8"?>
<!-- Generator: Adobe Illustrator 25.3.1, SVG Export Plug-In . SVG Version: 6.00 Build 0)  -->
<svg version="1.1" id="Layer_1" xmlns="http://www.w3.org/2000/svg" xmlns:xlink="http://www.w3.org/1999/xlink" x="0px" y="0px"
	 viewBox="0 0 158 130" style="enable-background:new 0 0 158 130;" xml:space="preserve">
<style type="text/css">
	.st0{fill:#1F1F1A;}
	.st1{fill:#FFE450;}
</style>
<path class="st0" d="M40.16,52.29c2.09,6.93,4.62,13.43,7.37,19.7c4.73,11.23,7.92,17.17,12.33,24.54
	c5.39,8.8,11.34,18.82,21.13,25.31c7.15,4.73,15.85,7.15,24.21,7.15c11.78,0,21.9-5.17,28.4-11.23
	c6.38-5.94,14.64-17.39,14.64-39.73c0-7.7,3.41-14.31,5.94-19.59c0-0.11,0.11-0.33,0.33-0.77c0.99-2.2,2.2-5.06,2.2-7.92
	c0-2.09-0.55-4.51-1.98-6.6c-2.2-3.74-6.16-5.06-9.8-5.06c-8.47,0-14.31,5.94-17.28,12l-0.99,1.98c-1.21-1.76-2.42-3.63-3.41-5.28
	c-3.08-5.39-4.84-9.02-6.38-13.65c-1.21-3.63-2.2-7.81-2.86-11.23c-1.87-10.79-4.95-14.31-10.02-15.63
	c-3.74-0.99-8.14-0.22-11.34,1.87C90.46,3.2,86.72,1,81.76,1c-7.04,0-13.43,4.62-13.43,12.44c0,0.99,0.11,1.98,0.22,3.19
	c-0.88-0.22-1.87-0.33-2.86-0.33c-7.59,0-13.21,5.28-13.21,12.44c0,1.65,0.22,3.52,0.77,5.72c-0.66-0.11-1.32-0.11-1.98-0.11
	c-3.74,0.22-7.15,1.65-9.58,4.62C39.28,41.83,38.29,46.23,40.16,52.29z"/>
<path class="st1" d="M46.43,50.31c-0.99-3.19-0.88-5.61,0.33-7.15c1.21-1.43,2.86-2.09,4.84-2.2c3.41-0.11,4.73,2.31,6.71,8.58
	c1.21,3.96,3.63,9.69,5.06,12.88c1.87,3.85,4.51,9.02,5.72,10.79c0.99,1.54,1.87,1.98,2.86,1.98c1.76,0,3.08-0.99,3.08-2.75
	c0-0.99-0.99-2.64-1.54-3.63c-0.99-1.87-3.08-5.61-4.51-8.8c-1.54-3.52-3.3-7.92-4.73-11.89c-0.88-2.31-1.87-5.61-2.86-8.91
	c-1.54-5.06-2.31-8.14-2.31-10.46c0-3.52,2.64-5.83,6.6-5.83c2.86,0,4.73,1.43,5.94,6.6c0.99,4.73,2.75,12.44,5.28,18.49
	c1.65,3.96,4.07,9.25,5.5,11.89c0.88,1.54,1.87,2.86,1.87,3.41c0,0.77-1.43,1.98-2.64,3.63c-0.77,0.99-1.1,1.65-1.1,2.42
	c0,0.66,0.44,1.32,1.1,2.2c0.66,0.88,1.32,1.76,2.09,1.76c0.55,0,0.88-0.22,1.21-0.66c3.41-4.29,7.15-7.26,11.45-9.69
	c5.06-2.86,10.24-4.29,14.31-5.17c1.98-0.44,2.53-0.88,2.53-1.98c0-1.32-0.99-2.09-2.31-2.2c-0.99-0.11-1.87,0-3.41,0.11
	c-1.1,0.11-1.65-0.44-2.31-1.87c-1.98-4.18-5.83-11.23-8.14-20.25c-0.99-3.85-1.87-7.92-2.42-13.21c-0.33-2.42,0.11-3.3,1.32-4.4
	c1.54-1.32,4.29-1.87,6.38-1.32c2.53,0.66,3.85,2.64,5.17,10.35c0.66,3.63,1.76,8.25,3.08,12.22c1.65,5.06,3.74,9.25,6.93,14.86
	c1.76,3.08,3.96,6.27,6.27,9.36c-0.44,1.32-1.21,2.2-3.74,4.29c-2.53,2.09-5.06,4.29-7.37,8.36c-1.65,2.97-2.42,6.27-2.42,8.47
	c0,2.09,0.44,2.53,1.76,2.53c2.31,0,4.18-0.44,4.29-1.43c0.55-3.96,1.21-6.49,3.41-9.47c1.32-1.65,3.63-3.74,5.5-5.39
	c3.52-2.86,4.73-4.51,5.94-8.58c0.55-1.87,1.21-3.63,2.09-5.28c2.09-3.85,5.83-8.25,11.67-8.25c1.87,0,3.41,0.55,4.4,2.09
	c0.55,0.88,0.77,2.09,0.77,2.97c0,1.98-1.43,4.73-2.09,6.05c-2.42,5.17-6.38,13.1-6.38,22.23c0,19.92-7.04,29.83-12.55,34.89
	c-5.39,5.06-13.87,9.47-23.88,9.47c-7.15,0-14.53-2.09-20.58-6.05c-8.47-5.61-13.76-14.42-19.15-23.22
	c-4.29-7.15-7.26-12.77-11.89-23.66C50.95,63.18,48.52,57.02,46.43,50.31z"/>
<path class="st1" d="M74.72,13.44c0-4.18,3.85-5.83,7.04-5.83c3.41,0,4.62,1.65,5.5,5.17c0.77,2.86,1.1,5.5,1.43,8.58
	c0.44,3.08,1.98,10.13,2.42,11.89c1.65,6.05,4.95,13.21,8.91,21.79c-2.31,0.77-5.39,2.09-7.48,3.19c-2.64,1.43-3.19,1.43-4.29-0.66
	c-2.31-4.29-3.96-7.48-5.39-11.23c-1.21-3.08-2.42-6.6-3.41-10.68c-1.65-6.93-1.87-8.91-3.19-12.11
	C75.49,20.26,74.72,16.19,74.72,13.44z"/>
<path class="st0" d="M35.32,87.12c-2.33,1.44-14.68,7.91-17.47,8.94c-1.99,0.74-4.15,0.56-5.42-3.2c-1.56-4.65,0.63-5.75,3.75-6.96
	c2.76-1.07,14.21-5.21,16.87-5.93c1.87-0.5,3.17,0.13,4.07,2.38C38.11,84.82,37.43,85.81,35.32,87.12"/>
<path class="st0" d="M25.14,60.91C21.82,61,8.03,60.41,4.88,60.1c-2.74-0.27-3.85-1.48-3.55-5.45c0.32-4.26,1.98-4.52,4.67-4.26
	c3.12,0.3,17.57,2.65,19.87,3.36c2.38,0.74,2.71,1.82,2.42,3.9C27.92,60.35,26.7,60.86,25.14,60.91"/>
<path class="st0" d="M26.85,32.99c-3.8-1.2-15.08-8.03-18.02-9.79c-2.66-1.6-3-3.04-1.15-6.55c1.64-3.1,3.46-3.64,6.16-2.24
	c3.13,1.63,14.18,10.23,16.29,11.93c2.04,1.64,1.76,2.49,0.69,4.6C29.75,33.05,28.75,33.59,26.85,32.99"/>
</svg>
