<?xml version="1.0" encoding="UTF-8"?>
<svg width="240px" height="80px" viewBox="0 0 240 80" version="1.1" xmlns="http://www.w3.org/2000/svg" xmlns:xlink="http://www.w3.org/1999/xlink">
    <title>Windows</title>
    <g id="Page-1" stroke="none" stroke-width="1" fill="none" fill-rule="evenodd">
        <g id="Artboard" transform="translate(-101.000000, -236.000000)">
            <g id="Windows" transform="translate(101.000000, 236.000000)">
                <g id="apple">
                    <path d="M220.2,0 L15,0 C13.6,0 12.4,0.2 11,0.4 C9.8,0.6 8.4,1 7.2,1.6 C6,2.2 5,3 4,4 C3,5 2.2,6 1.6,7.2 C1,8.4 0.6,9.8 0.4,11 C0.2,12.4 0,13.6 0,15 C0,15.6 0,16.2 0,16.8 L0,63 C0,63.6 0,64.2 0,64.8 C0,66.2 0.2,67.4 0.4,68.8 C0.6,70.2 1,71.4 1.6,72.6 C2.2,74 3,75 4,76 C5,77 6,77.8 7.2,78.4 C8.4,79 9.6,79.4 11,79.6 C12.4,79.8 13.6,80 15,80 L224.2,80 C225.6,80 226.8,79.8 228.2,79.6 C229.6,79.4 230.8,79 232,78.4 C233.2,77.8 234.2,77 235.2,76 C236.2,75 237,74 237.6,72.8 C238.2,71.6 238.6,70.4 238.8,69 C239,67.6 239.2,66.4 239.2,65 C239.2,64.4 239.2,63.8 239.2,63.2 L239.2,16.8 C239.2,16.2 239.2,15.6 239.2,15 C239.2,13.6 239,12.4 238.8,11 C238.6,9.6 238.2,8.4 237.6,7.2 C236.4,4.8 234.4,2.8 232,1.6 C230.8,1 229.6,0.6 228.2,0.4 C226.8,0.2 225.6,0 224.2,0 L220.2,0 Z" id="Path" fill-rule="nonzero"></path>
                    <path d="M16.8,78.2 L15,78.2 C13.8,78.2 12.4,78.2 11.2,78 C10,77.8 9,77.4 7.8,76.8 C6.8,76.2 5.8,75.6 5,74.8 C4.2,74 3.6,73 3,72 C2.4,71 2,69.8 2,68.6 C1.8,67.4 1.6,66.2 1.6,64.8 C1.6,64.4 1.6,63 1.6,63 L1.6,16.8 C1.6,16.8 1.6,15.4 1.6,15 C1.6,13.8 1.8,12.4 2,11.2 C2.4,10.2 2.6,9 3.2,8 C3.8,7 4.4,6 5.2,5.2 C6,4.4 7,3.8 8,3.2 C9,2.6 10.2,2.2 11.4,2 C12.6,1.8 14,1.6 15.2,1.6 L224.4,1.6 C225.6,1.6 226.8,1.8 228.2,2 C229.4,2.2 230.4,2.6 231.6,3 C233.6,4 235.4,5.8 236.4,7.8 C237,8.8 237.2,10 237.4,11.2 C237.6,12.4 237.8,13.8 237.8,15 L237.8,16.8 C237.8,17.6 237.8,18.2 237.8,19 L237.8,60.8 C237.8,61.6 237.8,62.2 237.8,63 L237.8,64.8 C237.8,66 237.6,67.2 237.4,68.4 C237.2,69.6 236.8,70.6 236.4,71.8 C235.8,72.8 235.2,73.8 234.4,74.6 C233.6,75.4 232.6,76 231.6,76.6 C230.6,77.2 229.4,77.6 228.2,77.8 C227,78 225.8,78.2 224.4,78.2 L16.8,78.2 Z" id="Path" fill="#000000" fill-rule="nonzero"></path>
                    <g id="_Group_2" transform="translate(19.000000, 17.000000)"></g>
                </g>
                <text id="Download-for-Windows" font-family="HelveticaNeue, Helvetica Neue" font-size="24" font-weight="normal" line-spacing="25" fill="#FFFFFF">
                    <tspan x="70" y="39">Download</tspan>
                    <tspan x="70" y="64">for </tspan>
                    <tspan x="103.936" y="62.4637451" font-family="HelveticaNeue-Bold, Helvetica Neue" font-weight="bold">Windows</tspan>
                </text>
                <g id="Group" transform="translate(16.000000, 16.000000)" fill="#F5F5F5" fill-rule="nonzero">
                    <path d="M17.92,22.32256 C17.92,16.0832 17.92,9.84448 17.92,3.60512 C11.52,4.61696 6.31424,5.62496 0,6.63616 C0,13.00096 0,16.18368 0,22.54912 C6.31424,22.47552 11.52,22.3968 17.92,22.32256 Z" id="Path"></path>
                    <path d="M20.48,22.28544 C26.88,22.20864 34.64576,22.13568 40.96,22.05824 C40.96,14.73344 40.96,7.408 40.96,0.0832 C34.64576,1.09504 26.88,2.1024 20.48,3.11488 C20.48,9.50528 20.48,15.89504 20.48,22.28544 Z" id="Path"></path>
                    <path d="M20.736,25.3952 C20.73344,31.78496 20.736,38.17536 20.736,44.56576 C27.0496,45.5776 34.64448,46.5856 40.96,47.5968 C40.96,40.272 40.96,32.94592 40.96,25.62176 C34.64576,25.54688 27.05152,25.47072 20.736,25.3952 Z" id="Path"></path>
                    <path d="M17.92,25.35744 C11.52,25.28128 6.31424,25.2064 0,25.13024 C0,31.49568 0,34.67776 0,41.0432 C6.31424,42.05568 11.52,43.0624 17.92,44.07424 C17.92,37.83552 17.92,31.5968 17.92,25.35744 Z" id="Path"></path>
                </g>
            </g>
        </g>
    </g>
</svg>